<mxfile host="app.diagrams.net" agent="Mozilla/5.0 (X11; Linux x86_64) AppleWebKit/537.36 (KHTML, like Gecko) Chrome/128.0.0.0 Safari/537.36" version="24.7.16">
  <diagram name="Page-1" id="6g8dKji7r0EmzBupbdWJ">
    <mxGraphModel dx="2206" dy="1218" grid="1" gridSize="10" guides="1" tooltips="1" connect="1" arrows="1" fold="1" page="1" pageScale="1" pageWidth="850" pageHeight="1100" math="0" shadow="0">
      <root>
        <mxCell id="0" />
        <mxCell id="1" parent="0" />
        <mxCell id="DmJ9TZODRg7mhRMbHm29-1" style="edgeStyle=orthogonalEdgeStyle;rounded=0;orthogonalLoop=1;jettySize=auto;html=1;entryX=0;entryY=0.5;entryDx=0;entryDy=0;" edge="1" parent="1" source="DmJ9TZODRg7mhRMbHm29-27" target="DmJ9TZODRg7mhRMbHm29-53">
          <mxGeometry relative="1" as="geometry">
            <Array as="points">
              <mxPoint x="840" y="610" />
              <mxPoint x="840" y="610" />
            </Array>
          </mxGeometry>
        </mxCell>
        <mxCell id="DmJ9TZODRg7mhRMbHm29-2" style="edgeStyle=orthogonalEdgeStyle;rounded=0;orthogonalLoop=1;jettySize=auto;html=1;entryX=0;entryY=0.5;entryDx=0;entryDy=0;" edge="1" parent="1" source="DmJ9TZODRg7mhRMbHm29-32" target="DmJ9TZODRg7mhRMbHm29-53">
          <mxGeometry relative="1" as="geometry">
            <mxPoint x="1070" y="610" as="targetPoint" />
            <Array as="points">
              <mxPoint x="1050" y="610" />
              <mxPoint x="1050" y="610" />
            </Array>
          </mxGeometry>
        </mxCell>
        <mxCell id="DmJ9TZODRg7mhRMbHm29-3" value="" style="swimlane;startSize=0;fontFamily=Ubuntu;fontSource=https%3A%2F%2Ffonts.googleapis.com%2Fcss%3Ffamily%3DUbuntu;fillColor=#e1d5e7;strokeColor=#9673a6;" vertex="1" parent="1">
          <mxGeometry x="80" y="340" width="720" height="160" as="geometry" />
        </mxCell>
        <mxCell id="DmJ9TZODRg7mhRMbHm29-4" value="" style="group;fontFamily=Ubuntu;fontSource=https%3A%2F%2Ffonts.googleapis.com%2Fcss%3Ffamily%3DUbuntu;" vertex="1" connectable="0" parent="DmJ9TZODRg7mhRMbHm29-3">
          <mxGeometry width="150" height="150" as="geometry" />
        </mxCell>
        <mxCell id="DmJ9TZODRg7mhRMbHm29-5" value="&lt;span style=&quot;font-size: 14px;&quot;&gt;Pipeline Eventbus&lt;/span&gt;" style="text;html=1;align=center;verticalAlign=middle;whiteSpace=wrap;rounded=0;fontFamily=Ubuntu;fontSource=https%3A%2F%2Ffonts.googleapis.com%2Fcss%3Ffamily%3DUbuntu;" vertex="1" parent="DmJ9TZODRg7mhRMbHm29-4">
          <mxGeometry y="110" width="150" height="40" as="geometry" />
        </mxCell>
        <mxCell id="DmJ9TZODRg7mhRMbHm29-6" value="" style="sketch=0;points=[[0,0,0],[0.25,0,0],[0.5,0,0],[0.75,0,0],[1,0,0],[0,1,0],[0.25,1,0],[0.5,1,0],[0.75,1,0],[1,1,0],[0,0.25,0],[0,0.5,0],[0,0.75,0],[1,0.25,0],[1,0.5,0],[1,0.75,0]];outlineConnect=0;fontColor=#232F3E;fillColor=#E7157B;strokeColor=#ffffff;dashed=0;verticalLabelPosition=bottom;verticalAlign=top;align=center;html=1;fontSize=12;fontStyle=0;aspect=fixed;shape=mxgraph.aws4.resourceIcon;resIcon=mxgraph.aws4.eventbridge;" vertex="1" parent="DmJ9TZODRg7mhRMbHm29-4">
          <mxGeometry x="26" width="98" height="98" as="geometry" />
        </mxCell>
        <mxCell id="DmJ9TZODRg7mhRMbHm29-7" value="" style="group" vertex="1" connectable="0" parent="DmJ9TZODRg7mhRMbHm29-3">
          <mxGeometry x="180" y="30" width="120" height="108" as="geometry" />
        </mxCell>
        <mxCell id="DmJ9TZODRg7mhRMbHm29-8" value="" style="sketch=0;outlineConnect=0;fontColor=#232F3E;gradientColor=none;fillColor=#E7157B;strokeColor=none;dashed=0;verticalLabelPosition=bottom;verticalAlign=top;align=center;html=1;fontSize=12;fontStyle=0;aspect=fixed;pointerEvents=1;shape=mxgraph.aws4.rule_3;" vertex="1" parent="DmJ9TZODRg7mhRMbHm29-7">
          <mxGeometry x="21" width="78" height="68" as="geometry" />
        </mxCell>
        <mxCell id="DmJ9TZODRg7mhRMbHm29-9" value="&lt;span style=&quot;font-size: 14px;&quot;&gt;Eventrule Build&lt;/span&gt;&lt;div&gt;&lt;font style=&quot;font-size: 8px;&quot;&gt;detail-type: battleshiper.build&lt;/font&gt;&lt;/div&gt;" style="text;html=1;align=center;verticalAlign=middle;whiteSpace=wrap;rounded=0;fontFamily=Ubuntu;fontSource=https%3A%2F%2Ffonts.googleapis.com%2Fcss%3Ffamily%3DUbuntu;" vertex="1" parent="DmJ9TZODRg7mhRMbHm29-7">
          <mxGeometry y="68" width="120" height="40" as="geometry" />
        </mxCell>
        <mxCell id="DmJ9TZODRg7mhRMbHm29-10" value="" style="group" vertex="1" connectable="0" parent="DmJ9TZODRg7mhRMbHm29-3">
          <mxGeometry x="450" y="30" width="120" height="108" as="geometry" />
        </mxCell>
        <mxCell id="DmJ9TZODRg7mhRMbHm29-11" value="" style="sketch=0;outlineConnect=0;fontColor=#232F3E;gradientColor=none;fillColor=#E7157B;strokeColor=none;dashed=0;verticalLabelPosition=bottom;verticalAlign=top;align=center;html=1;fontSize=12;fontStyle=0;aspect=fixed;pointerEvents=1;shape=mxgraph.aws4.rule_3;" vertex="1" parent="DmJ9TZODRg7mhRMbHm29-10">
          <mxGeometry x="21" width="78" height="68" as="geometry" />
        </mxCell>
        <mxCell id="DmJ9TZODRg7mhRMbHm29-12" value="&lt;span style=&quot;font-size: 14px;&quot;&gt;Eventrule Deploy&lt;/span&gt;&lt;div&gt;&lt;font style=&quot;font-size: 8px;&quot;&gt;detail-type: battleshiper.deploy&lt;/font&gt;&lt;/div&gt;" style="text;html=1;align=center;verticalAlign=middle;whiteSpace=wrap;rounded=0;fontFamily=Ubuntu;fontSource=https%3A%2F%2Ffonts.googleapis.com%2Fcss%3Ffamily%3DUbuntu;" vertex="1" parent="DmJ9TZODRg7mhRMbHm29-10">
          <mxGeometry y="68" width="120" height="40" as="geometry" />
        </mxCell>
        <mxCell id="DmJ9TZODRg7mhRMbHm29-13" value="" style="group" vertex="1" connectable="0" parent="DmJ9TZODRg7mhRMbHm29-3">
          <mxGeometry x="310" y="30" width="120" height="108" as="geometry" />
        </mxCell>
        <mxCell id="DmJ9TZODRg7mhRMbHm29-14" value="" style="sketch=0;outlineConnect=0;fontColor=#232F3E;gradientColor=none;fillColor=#E7157B;strokeColor=none;dashed=0;verticalLabelPosition=bottom;verticalAlign=top;align=center;html=1;fontSize=12;fontStyle=0;aspect=fixed;pointerEvents=1;shape=mxgraph.aws4.rule_3;" vertex="1" parent="DmJ9TZODRg7mhRMbHm29-13">
          <mxGeometry x="21" width="78" height="68" as="geometry" />
        </mxCell>
        <mxCell id="DmJ9TZODRg7mhRMbHm29-15" value="&lt;span style=&quot;font-size: 14px;&quot;&gt;Eventrule Init&lt;/span&gt;&lt;div&gt;&lt;font style=&quot;font-size: 8px;&quot;&gt;detail-type: battleshiper.init&lt;/font&gt;&lt;/div&gt;" style="text;html=1;align=center;verticalAlign=middle;whiteSpace=wrap;rounded=0;fontFamily=Ubuntu;fontSource=https%3A%2F%2Ffonts.googleapis.com%2Fcss%3Ffamily%3DUbuntu;" vertex="1" parent="DmJ9TZODRg7mhRMbHm29-13">
          <mxGeometry y="68" width="120" height="40" as="geometry" />
        </mxCell>
        <mxCell id="DmJ9TZODRg7mhRMbHm29-16" value="" style="group" vertex="1" connectable="0" parent="DmJ9TZODRg7mhRMbHm29-3">
          <mxGeometry x="590" y="30" width="120" height="108" as="geometry" />
        </mxCell>
        <mxCell id="DmJ9TZODRg7mhRMbHm29-17" value="" style="sketch=0;outlineConnect=0;fontColor=#232F3E;gradientColor=none;fillColor=#E7157B;strokeColor=none;dashed=0;verticalLabelPosition=bottom;verticalAlign=top;align=center;html=1;fontSize=12;fontStyle=0;aspect=fixed;pointerEvents=1;shape=mxgraph.aws4.rule_3;" vertex="1" parent="DmJ9TZODRg7mhRMbHm29-16">
          <mxGeometry x="21" width="78" height="68" as="geometry" />
        </mxCell>
        <mxCell id="DmJ9TZODRg7mhRMbHm29-18" value="&lt;span style=&quot;font-size: 14px;&quot;&gt;Eventrule Delete&lt;/span&gt;&lt;div&gt;&lt;font style=&quot;font-size: 8px;&quot;&gt;detail-type: battleshiper.delete&lt;/font&gt;&lt;/div&gt;" style="text;html=1;align=center;verticalAlign=middle;whiteSpace=wrap;rounded=0;fontFamily=Ubuntu;fontSource=https%3A%2F%2Ffonts.googleapis.com%2Fcss%3Ffamily%3DUbuntu;" vertex="1" parent="DmJ9TZODRg7mhRMbHm29-16">
          <mxGeometry y="68" width="120" height="40" as="geometry" />
        </mxCell>
        <mxCell id="DmJ9TZODRg7mhRMbHm29-19" value="" style="swimlane;startSize=0;fontFamily=Ubuntu;fontSource=https%3A%2F%2Ffonts.googleapis.com%2Fcss%3Ffamily%3DUbuntu;fillColor=#fff2cc;strokeColor=#d6b656;" vertex="1" parent="1">
          <mxGeometry x="620" y="530" width="450" height="160" as="geometry" />
        </mxCell>
        <mxCell id="DmJ9TZODRg7mhRMbHm29-20" value="" style="group" vertex="1" connectable="0" parent="DmJ9TZODRg7mhRMbHm29-19">
          <mxGeometry x="310" y="20" width="120.24000000000001" height="120.00000000000006" as="geometry" />
        </mxCell>
        <mxCell id="DmJ9TZODRg7mhRMbHm29-21" value="" style="group" vertex="1" connectable="0" parent="DmJ9TZODRg7mhRMbHm29-20">
          <mxGeometry x="10" width="110.24000000000001" height="90.44" as="geometry" />
        </mxCell>
        <mxCell id="DmJ9TZODRg7mhRMbHm29-22" value="" style="sketch=0;points=[[0,0,0],[0.25,0,0],[0.5,0,0],[0.75,0,0],[1,0,0],[0,1,0],[0.25,1,0],[0.5,1,0],[0.75,1,0],[1,1,0],[0,0.25,0],[0,0.5,0],[0,0.75,0],[1,0.25,0],[1,0.5,0],[1,0.75,0]];outlineConnect=0;fontColor=#232F3E;fillColor=#ED7100;strokeColor=#ffffff;dashed=0;verticalLabelPosition=bottom;verticalAlign=top;align=center;html=1;fontSize=12;fontStyle=0;aspect=fixed;shape=mxgraph.aws4.resourceIcon;resIcon=mxgraph.aws4.lambda;fontFamily=Ubuntu;fontSource=https%3A%2F%2Ffonts.googleapis.com%2Fcss%3Ffamily%3DUbuntu;" vertex="1" parent="DmJ9TZODRg7mhRMbHm29-21">
          <mxGeometry width="90.44" height="90.44" as="geometry" />
        </mxCell>
        <mxCell id="DmJ9TZODRg7mhRMbHm29-23" value="" style="shape=image;verticalLabelPosition=bottom;labelBackgroundColor=default;verticalAlign=top;aspect=fixed;imageAspect=0;image=https://static-00.iconduck.com/assets.00/file-type-go-icon-256x123-1zcguckk.png;" vertex="1" parent="DmJ9TZODRg7mhRMbHm29-21">
          <mxGeometry x="46.889999999999986" y="60" width="63.35" height="30.44" as="geometry" />
        </mxCell>
        <mxCell id="DmJ9TZODRg7mhRMbHm29-24" value="&lt;span style=&quot;font-size: 14px;&quot;&gt;Delete Func&lt;/span&gt;" style="text;html=1;align=center;verticalAlign=middle;whiteSpace=wrap;rounded=0;fontFamily=Ubuntu;fontSource=https%3A%2F%2Ffonts.googleapis.com%2Fcss%3Ffamily%3DUbuntu;" vertex="1" parent="DmJ9TZODRg7mhRMbHm29-20">
          <mxGeometry y="90.44000000000005" width="110" height="29.56" as="geometry" />
        </mxCell>
        <mxCell id="DmJ9TZODRg7mhRMbHm29-25" value="" style="group" vertex="1" connectable="0" parent="DmJ9TZODRg7mhRMbHm29-19">
          <mxGeometry x="30" y="20" width="120.24000000000001" height="120.00000000000006" as="geometry" />
        </mxCell>
        <mxCell id="DmJ9TZODRg7mhRMbHm29-26" value="" style="group" vertex="1" connectable="0" parent="DmJ9TZODRg7mhRMbHm29-25">
          <mxGeometry x="10" width="110.24000000000001" height="90.44" as="geometry" />
        </mxCell>
        <mxCell id="DmJ9TZODRg7mhRMbHm29-27" value="" style="sketch=0;points=[[0,0,0],[0.25,0,0],[0.5,0,0],[0.75,0,0],[1,0,0],[0,1,0],[0.25,1,0],[0.5,1,0],[0.75,1,0],[1,1,0],[0,0.25,0],[0,0.5,0],[0,0.75,0],[1,0.25,0],[1,0.5,0],[1,0.75,0]];outlineConnect=0;fontColor=#232F3E;fillColor=#ED7100;strokeColor=#ffffff;dashed=0;verticalLabelPosition=bottom;verticalAlign=top;align=center;html=1;fontSize=12;fontStyle=0;aspect=fixed;shape=mxgraph.aws4.resourceIcon;resIcon=mxgraph.aws4.lambda;fontFamily=Ubuntu;fontSource=https%3A%2F%2Ffonts.googleapis.com%2Fcss%3Ffamily%3DUbuntu;" vertex="1" parent="DmJ9TZODRg7mhRMbHm29-26">
          <mxGeometry width="90.44" height="90.44" as="geometry" />
        </mxCell>
        <mxCell id="DmJ9TZODRg7mhRMbHm29-28" value="" style="shape=image;verticalLabelPosition=bottom;labelBackgroundColor=default;verticalAlign=top;aspect=fixed;imageAspect=0;image=https://static-00.iconduck.com/assets.00/file-type-go-icon-256x123-1zcguckk.png;" vertex="1" parent="DmJ9TZODRg7mhRMbHm29-26">
          <mxGeometry x="46.889999999999986" y="60" width="63.35" height="30.44" as="geometry" />
        </mxCell>
        <mxCell id="DmJ9TZODRg7mhRMbHm29-29" value="&lt;span style=&quot;font-size: 14px;&quot;&gt;Init Func&lt;/span&gt;" style="text;html=1;align=center;verticalAlign=middle;whiteSpace=wrap;rounded=0;fontFamily=Ubuntu;fontSource=https%3A%2F%2Ffonts.googleapis.com%2Fcss%3Ffamily%3DUbuntu;" vertex="1" parent="DmJ9TZODRg7mhRMbHm29-25">
          <mxGeometry y="90.44000000000005" width="110" height="29.56" as="geometry" />
        </mxCell>
        <mxCell id="DmJ9TZODRg7mhRMbHm29-30" value="" style="group" vertex="1" connectable="0" parent="DmJ9TZODRg7mhRMbHm29-19">
          <mxGeometry x="170" y="20" width="120.24000000000001" height="120.00000000000006" as="geometry" />
        </mxCell>
        <mxCell id="DmJ9TZODRg7mhRMbHm29-31" value="" style="group" vertex="1" connectable="0" parent="DmJ9TZODRg7mhRMbHm29-30">
          <mxGeometry x="10" width="110.24000000000001" height="90.44" as="geometry" />
        </mxCell>
        <mxCell id="DmJ9TZODRg7mhRMbHm29-32" value="" style="sketch=0;points=[[0,0,0],[0.25,0,0],[0.5,0,0],[0.75,0,0],[1,0,0],[0,1,0],[0.25,1,0],[0.5,1,0],[0.75,1,0],[1,1,0],[0,0.25,0],[0,0.5,0],[0,0.75,0],[1,0.25,0],[1,0.5,0],[1,0.75,0]];outlineConnect=0;fontColor=#232F3E;fillColor=#ED7100;strokeColor=#ffffff;dashed=0;verticalLabelPosition=bottom;verticalAlign=top;align=center;html=1;fontSize=12;fontStyle=0;aspect=fixed;shape=mxgraph.aws4.resourceIcon;resIcon=mxgraph.aws4.lambda;fontFamily=Ubuntu;fontSource=https%3A%2F%2Ffonts.googleapis.com%2Fcss%3Ffamily%3DUbuntu;" vertex="1" parent="DmJ9TZODRg7mhRMbHm29-31">
          <mxGeometry width="90.44" height="90.44" as="geometry" />
        </mxCell>
        <mxCell id="DmJ9TZODRg7mhRMbHm29-33" value="" style="shape=image;verticalLabelPosition=bottom;labelBackgroundColor=default;verticalAlign=top;aspect=fixed;imageAspect=0;image=https://static-00.iconduck.com/assets.00/file-type-go-icon-256x123-1zcguckk.png;" vertex="1" parent="DmJ9TZODRg7mhRMbHm29-31">
          <mxGeometry x="46.889999999999986" y="60" width="63.35" height="30.44" as="geometry" />
        </mxCell>
        <mxCell id="DmJ9TZODRg7mhRMbHm29-34" value="&lt;span style=&quot;font-size: 14px;&quot;&gt;Deploy Func&lt;/span&gt;" style="text;html=1;align=center;verticalAlign=middle;whiteSpace=wrap;rounded=0;fontFamily=Ubuntu;fontSource=https%3A%2F%2Ffonts.googleapis.com%2Fcss%3Ffamily%3DUbuntu;" vertex="1" parent="DmJ9TZODRg7mhRMbHm29-30">
          <mxGeometry y="90.44000000000005" width="110" height="29.56" as="geometry" />
        </mxCell>
        <mxCell id="DmJ9TZODRg7mhRMbHm29-35" style="edgeStyle=orthogonalEdgeStyle;rounded=0;orthogonalLoop=1;jettySize=auto;html=1;entryX=0;entryY=0.25;entryDx=0;entryDy=0;exitX=0.5;exitY=1;exitDx=0;exitDy=0;" edge="1" parent="1" source="DmJ9TZODRg7mhRMbHm29-37" target="DmJ9TZODRg7mhRMbHm29-3">
          <mxGeometry relative="1" as="geometry">
            <Array as="points">
              <mxPoint x="405" y="820" />
              <mxPoint x="60" y="820" />
              <mxPoint x="60" y="380" />
            </Array>
          </mxGeometry>
        </mxCell>
        <mxCell id="DmJ9TZODRg7mhRMbHm29-36" value="battleshiper.deploy" style="edgeLabel;html=1;align=center;verticalAlign=middle;resizable=0;points=[];" vertex="1" connectable="0" parent="DmJ9TZODRg7mhRMbHm29-35">
          <mxGeometry x="-0.4401" y="1" relative="1" as="geometry">
            <mxPoint x="25" y="-1" as="offset" />
          </mxGeometry>
        </mxCell>
        <mxCell id="DmJ9TZODRg7mhRMbHm29-163" style="edgeStyle=orthogonalEdgeStyle;rounded=0;orthogonalLoop=1;jettySize=auto;html=1;entryX=0.5;entryY=1;entryDx=0;entryDy=0;exitX=0;exitY=0.75;exitDx=0;exitDy=0;" edge="1" parent="1" source="DmJ9TZODRg7mhRMbHm29-37" target="DmJ9TZODRg7mhRMbHm29-159">
          <mxGeometry relative="1" as="geometry" />
        </mxCell>
        <mxCell id="DmJ9TZODRg7mhRMbHm29-164" value="move build assets" style="edgeLabel;html=1;align=center;verticalAlign=middle;resizable=0;points=[];" vertex="1" connectable="0" parent="DmJ9TZODRg7mhRMbHm29-163">
          <mxGeometry x="-0.2697" y="1" relative="1" as="geometry">
            <mxPoint x="-24" y="-33" as="offset" />
          </mxGeometry>
        </mxCell>
        <mxCell id="DmJ9TZODRg7mhRMbHm29-37" value="" style="swimlane;startSize=0;fontFamily=Ubuntu;fontSource=https%3A%2F%2Ffonts.googleapis.com%2Fcss%3Ffamily%3DUbuntu;fillColor=#ffe6cc;strokeColor=#d79b00;" vertex="1" parent="1">
          <mxGeometry x="220" y="530" width="370.12" height="270" as="geometry" />
        </mxCell>
        <mxCell id="DmJ9TZODRg7mhRMbHm29-38" value="" style="group;fontFamily=Ubuntu;fontSource=https%3A%2F%2Ffonts.googleapis.com%2Fcss%3Ffamily%3DUbuntu;" vertex="1" connectable="0" parent="DmJ9TZODRg7mhRMbHm29-37">
          <mxGeometry x="250" y="10" width="105" height="113.78" as="geometry" />
        </mxCell>
        <mxCell id="DmJ9TZODRg7mhRMbHm29-39" value="&lt;span style=&quot;font-size: 14px;&quot;&gt;Build Job Queue&lt;/span&gt;" style="text;html=1;align=center;verticalAlign=middle;whiteSpace=wrap;rounded=0;fontFamily=Ubuntu;fontSource=https%3A%2F%2Ffonts.googleapis.com%2Fcss%3Ffamily%3DUbuntu;" vertex="1" parent="DmJ9TZODRg7mhRMbHm29-38">
          <mxGeometry x="-12.5" y="84.22" width="125" height="29.56" as="geometry" />
        </mxCell>
        <mxCell id="DmJ9TZODRg7mhRMbHm29-40" value="" style="sketch=0;points=[[0,0,0],[0.25,0,0],[0.5,0,0],[0.75,0,0],[1,0,0],[0,1,0],[0.25,1,0],[0.5,1,0],[0.75,1,0],[1,1,0],[0,0.25,0],[0,0.5,0],[0,0.75,0],[1,0.25,0],[1,0.5,0],[1,0.75,0]];outlineConnect=0;fontColor=#232F3E;fillColor=#ED7100;strokeColor=#ffffff;dashed=0;verticalLabelPosition=bottom;verticalAlign=top;align=center;html=1;fontSize=12;fontStyle=0;aspect=fixed;shape=mxgraph.aws4.resourceIcon;resIcon=mxgraph.aws4.batch;" vertex="1" parent="DmJ9TZODRg7mhRMbHm29-38">
          <mxGeometry x="16" y="6" width="68" height="68" as="geometry" />
        </mxCell>
        <mxCell id="DmJ9TZODRg7mhRMbHm29-41" style="edgeStyle=orthogonalEdgeStyle;rounded=0;orthogonalLoop=1;jettySize=auto;html=1;entryX=0.5;entryY=0;entryDx=0;entryDy=0;entryPerimeter=0;" edge="1" parent="DmJ9TZODRg7mhRMbHm29-37" source="DmJ9TZODRg7mhRMbHm29-39" target="DmJ9TZODRg7mhRMbHm29-45">
          <mxGeometry relative="1" as="geometry" />
        </mxCell>
        <mxCell id="DmJ9TZODRg7mhRMbHm29-42" style="edgeStyle=orthogonalEdgeStyle;rounded=0;orthogonalLoop=1;jettySize=auto;html=1;" edge="1" parent="DmJ9TZODRg7mhRMbHm29-37" source="DmJ9TZODRg7mhRMbHm29-39" target="DmJ9TZODRg7mhRMbHm29-48">
          <mxGeometry relative="1" as="geometry" />
        </mxCell>
        <mxCell id="DmJ9TZODRg7mhRMbHm29-43" style="edgeStyle=orthogonalEdgeStyle;rounded=0;orthogonalLoop=1;jettySize=auto;html=1;entryX=0.5;entryY=0;entryDx=0;entryDy=0;entryPerimeter=0;" edge="1" parent="DmJ9TZODRg7mhRMbHm29-37" source="DmJ9TZODRg7mhRMbHm29-39" target="DmJ9TZODRg7mhRMbHm29-51">
          <mxGeometry relative="1" as="geometry" />
        </mxCell>
        <mxCell id="DmJ9TZODRg7mhRMbHm29-44" value="" style="group" vertex="1" connectable="0" parent="DmJ9TZODRg7mhRMbHm29-37">
          <mxGeometry x="4" y="160" width="110" height="107.56" as="geometry" />
        </mxCell>
        <mxCell id="DmJ9TZODRg7mhRMbHm29-45" value="" style="sketch=0;points=[[0,0,0],[0.25,0,0],[0.5,0,0],[0.75,0,0],[1,0,0],[0,1,0],[0.25,1,0],[0.5,1,0],[0.75,1,0],[1,1,0],[0,0.25,0],[0,0.5,0],[0,0.75,0],[1,0.25,0],[1,0.5,0],[1,0.75,0]];outlineConnect=0;fontColor=#232F3E;fillColor=#ED7100;strokeColor=#ffffff;dashed=0;verticalLabelPosition=bottom;verticalAlign=top;align=center;html=1;fontSize=12;fontStyle=0;aspect=fixed;shape=mxgraph.aws4.resourceIcon;resIcon=mxgraph.aws4.fargate;" vertex="1" parent="DmJ9TZODRg7mhRMbHm29-44">
          <mxGeometry x="16" width="78" height="78" as="geometry" />
        </mxCell>
        <mxCell id="DmJ9TZODRg7mhRMbHm29-46" value="&lt;span style=&quot;font-size: 14px;&quot;&gt;Build Container&lt;/span&gt;" style="text;html=1;align=center;verticalAlign=middle;whiteSpace=wrap;rounded=0;fontFamily=Ubuntu;fontSource=https%3A%2F%2Ffonts.googleapis.com%2Fcss%3Ffamily%3DUbuntu;" vertex="1" parent="DmJ9TZODRg7mhRMbHm29-44">
          <mxGeometry y="78" width="110" height="29.56" as="geometry" />
        </mxCell>
        <mxCell id="DmJ9TZODRg7mhRMbHm29-47" value="" style="group" vertex="1" connectable="0" parent="DmJ9TZODRg7mhRMbHm29-37">
          <mxGeometry x="130.06" y="160" width="110" height="107.56" as="geometry" />
        </mxCell>
        <mxCell id="DmJ9TZODRg7mhRMbHm29-48" value="" style="sketch=0;points=[[0,0,0],[0.25,0,0],[0.5,0,0],[0.75,0,0],[1,0,0],[0,1,0],[0.25,1,0],[0.5,1,0],[0.75,1,0],[1,1,0],[0,0.25,0],[0,0.5,0],[0,0.75,0],[1,0.25,0],[1,0.5,0],[1,0.75,0]];outlineConnect=0;fontColor=#232F3E;fillColor=#ED7100;strokeColor=#ffffff;dashed=0;verticalLabelPosition=bottom;verticalAlign=top;align=center;html=1;fontSize=12;fontStyle=0;aspect=fixed;shape=mxgraph.aws4.resourceIcon;resIcon=mxgraph.aws4.fargate;" vertex="1" parent="DmJ9TZODRg7mhRMbHm29-47">
          <mxGeometry x="16" width="78" height="78" as="geometry" />
        </mxCell>
        <mxCell id="DmJ9TZODRg7mhRMbHm29-49" value="&lt;span style=&quot;font-size: 14px;&quot;&gt;Build Container&lt;/span&gt;" style="text;html=1;align=center;verticalAlign=middle;whiteSpace=wrap;rounded=0;fontFamily=Ubuntu;fontSource=https%3A%2F%2Ffonts.googleapis.com%2Fcss%3Ffamily%3DUbuntu;" vertex="1" parent="DmJ9TZODRg7mhRMbHm29-47">
          <mxGeometry y="78" width="110" height="29.56" as="geometry" />
        </mxCell>
        <mxCell id="DmJ9TZODRg7mhRMbHm29-50" value="" style="group" vertex="1" connectable="0" parent="DmJ9TZODRg7mhRMbHm29-37">
          <mxGeometry x="245" y="160" width="110" height="107.56" as="geometry" />
        </mxCell>
        <mxCell id="DmJ9TZODRg7mhRMbHm29-51" value="" style="sketch=0;points=[[0,0,0],[0.25,0,0],[0.5,0,0],[0.75,0,0],[1,0,0],[0,1,0],[0.25,1,0],[0.5,1,0],[0.75,1,0],[1,1,0],[0,0.25,0],[0,0.5,0],[0,0.75,0],[1,0.25,0],[1,0.5,0],[1,0.75,0]];outlineConnect=0;fontColor=#232F3E;fillColor=#ED7100;strokeColor=#ffffff;dashed=0;verticalLabelPosition=bottom;verticalAlign=top;align=center;html=1;fontSize=12;fontStyle=0;aspect=fixed;shape=mxgraph.aws4.resourceIcon;resIcon=mxgraph.aws4.fargate;" vertex="1" parent="DmJ9TZODRg7mhRMbHm29-50">
          <mxGeometry x="16" width="78" height="78" as="geometry" />
        </mxCell>
        <mxCell id="DmJ9TZODRg7mhRMbHm29-52" value="&lt;span style=&quot;font-size: 14px;&quot;&gt;Build Container&lt;/span&gt;" style="text;html=1;align=center;verticalAlign=middle;whiteSpace=wrap;rounded=0;fontFamily=Ubuntu;fontSource=https%3A%2F%2Ffonts.googleapis.com%2Fcss%3Ffamily%3DUbuntu;" vertex="1" parent="DmJ9TZODRg7mhRMbHm29-50">
          <mxGeometry y="78" width="110" height="29.56" as="geometry" />
        </mxCell>
        <mxCell id="DmJ9TZODRg7mhRMbHm29-53" value="" style="swimlane;startSize=0;fontFamily=Ubuntu;fontSource=https%3A%2F%2Ffonts.googleapis.com%2Fcss%3Ffamily%3DUbuntu;fillColor=#e1d5e7;strokeColor=#9673a6;" vertex="1" parent="1">
          <mxGeometry x="1100" y="530" width="280" height="160" as="geometry" />
        </mxCell>
        <mxCell id="DmJ9TZODRg7mhRMbHm29-54" value="DynamoDB Tables" style="text;html=1;align=center;verticalAlign=middle;whiteSpace=wrap;rounded=0;fontFamily=Ubuntu;fontSource=https%3A%2F%2Ffonts.googleapis.com%2Fcss%3Ffamily%3DUbuntu;fontSize=18;" vertex="1" parent="DmJ9TZODRg7mhRMbHm29-53">
          <mxGeometry x="10" y="10" width="255" height="40" as="geometry" />
        </mxCell>
        <mxCell id="DmJ9TZODRg7mhRMbHm29-55" value="" style="sketch=0;points=[[0,0,0],[0.25,0,0],[0.5,0,0],[0.75,0,0],[1,0,0],[0,1,0],[0.25,1,0],[0.5,1,0],[0.75,1,0],[1,1,0],[0,0.25,0],[0,0.5,0],[0,0.75,0],[1,0.25,0],[1,0.5,0],[1,0.75,0]];outlineConnect=0;fontColor=#232F3E;fillColor=#C925D1;strokeColor=#ffffff;dashed=0;verticalLabelPosition=bottom;verticalAlign=top;align=center;html=1;fontSize=12;fontStyle=0;aspect=fixed;shape=mxgraph.aws4.resourceIcon;resIcon=mxgraph.aws4.dynamodb;" vertex="1" parent="DmJ9TZODRg7mhRMbHm29-53">
          <mxGeometry x="98.5" y="60" width="78" height="78" as="geometry" />
        </mxCell>
        <mxCell id="DmJ9TZODRg7mhRMbHm29-56" value="" style="sketch=0;points=[[0,0,0],[0.25,0,0],[0.5,0,0],[0.75,0,0],[1,0,0],[0,1,0],[0.25,1,0],[0.5,1,0],[0.75,1,0],[1,1,0],[0,0.25,0],[0,0.5,0],[0,0.75,0],[1,0.25,0],[1,0.5,0],[1,0.75,0]];outlineConnect=0;fontColor=#232F3E;fillColor=#C925D1;strokeColor=#ffffff;dashed=0;verticalLabelPosition=bottom;verticalAlign=top;align=center;html=1;fontSize=12;fontStyle=0;aspect=fixed;shape=mxgraph.aws4.resourceIcon;resIcon=mxgraph.aws4.dynamodb;" vertex="1" parent="DmJ9TZODRg7mhRMbHm29-53">
          <mxGeometry x="187" y="60" width="78" height="78" as="geometry" />
        </mxCell>
        <mxCell id="DmJ9TZODRg7mhRMbHm29-57" value="" style="sketch=0;points=[[0,0,0],[0.25,0,0],[0.5,0,0],[0.75,0,0],[1,0,0],[0,1,0],[0.25,1,0],[0.5,1,0],[0.75,1,0],[1,1,0],[0,0.25,0],[0,0.5,0],[0,0.75,0],[1,0.25,0],[1,0.5,0],[1,0.75,0]];outlineConnect=0;fontColor=#232F3E;fillColor=#C925D1;strokeColor=#ffffff;dashed=0;verticalLabelPosition=bottom;verticalAlign=top;align=center;html=1;fontSize=12;fontStyle=0;aspect=fixed;shape=mxgraph.aws4.resourceIcon;resIcon=mxgraph.aws4.dynamodb;" vertex="1" parent="DmJ9TZODRg7mhRMbHm29-53">
          <mxGeometry x="10" y="60" width="78" height="78" as="geometry" />
        </mxCell>
        <mxCell id="DmJ9TZODRg7mhRMbHm29-58" style="edgeStyle=orthogonalEdgeStyle;rounded=0;orthogonalLoop=1;jettySize=auto;html=1;entryX=0;entryY=0.5;entryDx=0;entryDy=0;entryPerimeter=0;exitX=0.5;exitY=1;exitDx=0;exitDy=0;" edge="1" parent="1" source="DmJ9TZODRg7mhRMbHm29-9" target="DmJ9TZODRg7mhRMbHm29-40">
          <mxGeometry relative="1" as="geometry" />
        </mxCell>
        <mxCell id="DmJ9TZODRg7mhRMbHm29-59" style="edgeStyle=orthogonalEdgeStyle;rounded=0;orthogonalLoop=1;jettySize=auto;html=1;entryX=0.5;entryY=0;entryDx=0;entryDy=0;entryPerimeter=0;exitX=0.5;exitY=1;exitDx=0;exitDy=0;" edge="1" parent="1" source="DmJ9TZODRg7mhRMbHm29-15" target="DmJ9TZODRg7mhRMbHm29-27">
          <mxGeometry relative="1" as="geometry" />
        </mxCell>
        <mxCell id="DmJ9TZODRg7mhRMbHm29-60" style="edgeStyle=orthogonalEdgeStyle;rounded=0;orthogonalLoop=1;jettySize=auto;html=1;entryX=0.5;entryY=0;entryDx=0;entryDy=0;entryPerimeter=0;exitX=0.5;exitY=1;exitDx=0;exitDy=0;" edge="1" parent="1" source="DmJ9TZODRg7mhRMbHm29-12" target="DmJ9TZODRg7mhRMbHm29-32">
          <mxGeometry relative="1" as="geometry" />
        </mxCell>
        <mxCell id="DmJ9TZODRg7mhRMbHm29-61" style="edgeStyle=orthogonalEdgeStyle;rounded=0;orthogonalLoop=1;jettySize=auto;html=1;entryX=0.5;entryY=0;entryDx=0;entryDy=0;entryPerimeter=0;exitX=0.5;exitY=1;exitDx=0;exitDy=0;" edge="1" parent="1" source="DmJ9TZODRg7mhRMbHm29-18" target="DmJ9TZODRg7mhRMbHm29-22">
          <mxGeometry relative="1" as="geometry" />
        </mxCell>
        <mxCell id="DmJ9TZODRg7mhRMbHm29-62" style="edgeStyle=orthogonalEdgeStyle;rounded=0;orthogonalLoop=1;jettySize=auto;html=1;entryX=0;entryY=0.5;entryDx=0;entryDy=0;" edge="1" parent="1" source="DmJ9TZODRg7mhRMbHm29-22" target="DmJ9TZODRg7mhRMbHm29-53">
          <mxGeometry relative="1" as="geometry">
            <Array as="points">
              <mxPoint x="1050" y="610" />
              <mxPoint x="1050" y="610" />
            </Array>
          </mxGeometry>
        </mxCell>
        <mxCell id="DmJ9TZODRg7mhRMbHm29-63" value="" style="swimlane;startSize=0;fontFamily=Ubuntu;fontSource=https%3A%2F%2Ffonts.googleapis.com%2Fcss%3Ffamily%3DUbuntu;fillColor=#e1d5e7;strokeColor=#9673a6;" vertex="1" parent="1">
          <mxGeometry x="620" y="720" width="450" height="80" as="geometry" />
        </mxCell>
        <mxCell id="DmJ9TZODRg7mhRMbHm29-64" value="Cloudformation" style="text;html=1;align=center;verticalAlign=middle;whiteSpace=wrap;rounded=0;fontFamily=Ubuntu;fontSource=https%3A%2F%2Ffonts.googleapis.com%2Fcss%3Ffamily%3DUbuntu;fontSize=18;" vertex="1" parent="DmJ9TZODRg7mhRMbHm29-63">
          <mxGeometry x="10" y="25" width="160" height="40" as="geometry" />
        </mxCell>
        <mxCell id="DmJ9TZODRg7mhRMbHm29-65" value="" style="sketch=0;points=[[0,0,0],[0.25,0,0],[0.5,0,0],[0.75,0,0],[1,0,0],[0,1,0],[0.25,1,0],[0.5,1,0],[0.75,1,0],[1,1,0],[0,0.25,0],[0,0.5,0],[0,0.75,0],[1,0.25,0],[1,0.5,0],[1,0.75,0]];points=[[0,0,0],[0.25,0,0],[0.5,0,0],[0.75,0,0],[1,0,0],[0,1,0],[0.25,1,0],[0.5,1,0],[0.75,1,0],[1,1,0],[0,0.25,0],[0,0.5,0],[0,0.75,0],[1,0.25,0],[1,0.5,0],[1,0.75,0]];outlineConnect=0;fontColor=#232F3E;fillColor=#E7157B;strokeColor=#ffffff;dashed=0;verticalLabelPosition=bottom;verticalAlign=top;align=center;html=1;fontSize=12;fontStyle=0;aspect=fixed;shape=mxgraph.aws4.resourceIcon;resIcon=mxgraph.aws4.cloudformation;" vertex="1" parent="DmJ9TZODRg7mhRMbHm29-63">
          <mxGeometry x="200" y="11.5" width="57" height="57" as="geometry" />
        </mxCell>
        <mxCell id="DmJ9TZODRg7mhRMbHm29-66" value="" style="sketch=0;points=[[0,0,0],[0.25,0,0],[0.5,0,0],[0.75,0,0],[1,0,0],[0,1,0],[0.25,1,0],[0.5,1,0],[0.75,1,0],[1,1,0],[0,0.25,0],[0,0.5,0],[0,0.75,0],[1,0.25,0],[1,0.5,0],[1,0.75,0]];points=[[0,0,0],[0.25,0,0],[0.5,0,0],[0.75,0,0],[1,0,0],[0,1,0],[0.25,1,0],[0.5,1,0],[0.75,1,0],[1,1,0],[0,0.25,0],[0,0.5,0],[0,0.75,0],[1,0.25,0],[1,0.5,0],[1,0.75,0]];outlineConnect=0;fontColor=#232F3E;fillColor=#E7157B;strokeColor=#ffffff;dashed=0;verticalLabelPosition=bottom;verticalAlign=top;align=center;html=1;fontSize=12;fontStyle=0;aspect=fixed;shape=mxgraph.aws4.resourceIcon;resIcon=mxgraph.aws4.cloudformation;" vertex="1" parent="DmJ9TZODRg7mhRMbHm29-63">
          <mxGeometry x="290" y="11.5" width="57" height="57" as="geometry" />
        </mxCell>
        <mxCell id="DmJ9TZODRg7mhRMbHm29-67" value="" style="sketch=0;points=[[0,0,0],[0.25,0,0],[0.5,0,0],[0.75,0,0],[1,0,0],[0,1,0],[0.25,1,0],[0.5,1,0],[0.75,1,0],[1,1,0],[0,0.25,0],[0,0.5,0],[0,0.75,0],[1,0.25,0],[1,0.5,0],[1,0.75,0]];points=[[0,0,0],[0.25,0,0],[0.5,0,0],[0.75,0,0],[1,0,0],[0,1,0],[0.25,1,0],[0.5,1,0],[0.75,1,0],[1,1,0],[0,0.25,0],[0,0.5,0],[0,0.75,0],[1,0.25,0],[1,0.5,0],[1,0.75,0]];outlineConnect=0;fontColor=#232F3E;fillColor=#E7157B;strokeColor=#ffffff;dashed=0;verticalLabelPosition=bottom;verticalAlign=top;align=center;html=1;fontSize=12;fontStyle=0;aspect=fixed;shape=mxgraph.aws4.resourceIcon;resIcon=mxgraph.aws4.cloudformation;" vertex="1" parent="DmJ9TZODRg7mhRMbHm29-63">
          <mxGeometry x="380" y="11.5" width="57" height="57" as="geometry" />
        </mxCell>
        <mxCell id="DmJ9TZODRg7mhRMbHm29-68" style="edgeStyle=orthogonalEdgeStyle;rounded=0;orthogonalLoop=1;jettySize=auto;html=1;entryX=0.5;entryY=0;entryDx=0;entryDy=0;" edge="1" parent="1" source="DmJ9TZODRg7mhRMbHm29-29" target="DmJ9TZODRg7mhRMbHm29-63">
          <mxGeometry relative="1" as="geometry">
            <Array as="points">
              <mxPoint x="705" y="700" />
              <mxPoint x="845" y="700" />
            </Array>
          </mxGeometry>
        </mxCell>
        <mxCell id="DmJ9TZODRg7mhRMbHm29-69" style="edgeStyle=orthogonalEdgeStyle;rounded=0;orthogonalLoop=1;jettySize=auto;html=1;entryX=0.5;entryY=0;entryDx=0;entryDy=0;" edge="1" parent="1" source="DmJ9TZODRg7mhRMbHm29-34" target="DmJ9TZODRg7mhRMbHm29-63">
          <mxGeometry relative="1" as="geometry" />
        </mxCell>
        <mxCell id="DmJ9TZODRg7mhRMbHm29-70" style="edgeStyle=orthogonalEdgeStyle;rounded=0;orthogonalLoop=1;jettySize=auto;html=1;entryX=0.5;entryY=0;entryDx=0;entryDy=0;" edge="1" parent="1" source="DmJ9TZODRg7mhRMbHm29-24" target="DmJ9TZODRg7mhRMbHm29-63">
          <mxGeometry relative="1" as="geometry">
            <Array as="points">
              <mxPoint x="985" y="700" />
              <mxPoint x="845" y="700" />
            </Array>
          </mxGeometry>
        </mxCell>
        <mxCell id="DmJ9TZODRg7mhRMbHm29-159" value="" style="swimlane;startSize=0;fontFamily=Ubuntu;fontSource=https%3A%2F%2Ffonts.googleapis.com%2Fcss%3Ffamily%3DUbuntu;fillColor=#d5e8d4;strokeColor=#82b366;" vertex="1" parent="1">
          <mxGeometry x="80" y="530" width="120" height="130" as="geometry" />
        </mxCell>
        <mxCell id="DmJ9TZODRg7mhRMbHm29-160" value="" style="group;fontFamily=Ubuntu;fontSource=https%3A%2F%2Ffonts.googleapis.com%2Fcss%3Ffamily%3DUbuntu;" vertex="1" connectable="0" parent="DmJ9TZODRg7mhRMbHm29-159">
          <mxGeometry x="10" y="10" width="100" height="113.78" as="geometry" />
        </mxCell>
        <mxCell id="DmJ9TZODRg7mhRMbHm29-161" value="" style="sketch=0;points=[[0,0,0],[0.25,0,0],[0.5,0,0],[0.75,0,0],[1,0,0],[0,1,0],[0.25,1,0],[0.5,1,0],[0.75,1,0],[1,1,0],[0,0.25,0],[0,0.5,0],[0,0.75,0],[1,0.25,0],[1,0.5,0],[1,0.75,0]];outlineConnect=0;fontColor=#232F3E;fillColor=#7AA116;strokeColor=#ffffff;dashed=0;verticalLabelPosition=bottom;verticalAlign=top;align=center;html=1;fontSize=12;fontStyle=0;aspect=fixed;shape=mxgraph.aws4.resourceIcon;resIcon=mxgraph.aws4.s3;fontFamily=Ubuntu;fontSource=https%3A%2F%2Ffonts.googleapis.com%2Fcss%3Ffamily%3DUbuntu;" vertex="1" parent="DmJ9TZODRg7mhRMbHm29-160">
          <mxGeometry x="15" y="10" width="70" height="70" as="geometry" />
        </mxCell>
        <mxCell id="DmJ9TZODRg7mhRMbHm29-162" value="&lt;span style=&quot;font-size: 14px;&quot;&gt;Build Assets&lt;/span&gt;" style="text;html=1;align=center;verticalAlign=middle;whiteSpace=wrap;rounded=0;fontFamily=Ubuntu;fontSource=https%3A%2F%2Ffonts.googleapis.com%2Fcss%3Ffamily%3DUbuntu;" vertex="1" parent="DmJ9TZODRg7mhRMbHm29-160">
          <mxGeometry x="-10" y="84.22" width="120" height="29.56" as="geometry" />
        </mxCell>
      </root>
    </mxGraphModel>
  </diagram>
</mxfile>
